<?xml version="1.0" encoding="utf-8"?>
<!-- Generator: Adobe Illustrator 21.0.2, SVG Export Plug-In . SVG Version: 6.00 Build 0)  -->
<svg version="1.1" id="Layer_1" xmlns="http://www.w3.org/2000/svg" xmlns:xlink="http://www.w3.org/1999/xlink" x="0px" y="0px"
	 viewBox="0 0 1045.2 260" style="enable-background:new 0 0 1045.2 260;" xml:space="preserve">
<style type="text/css">
	.st0{fill:none;stroke:#D3CCB0;stroke-width:5;stroke-miterlimit:10;}
	.st1{fill:#518ABE;}
	.st2{fill:#F7F708;}
	.st3{fill:#F3F908;}
	.st4{fill:#F7F008;}
</style>
<g id="Layer_2_copy">
	<path class="st0" d="M346.3,72h689.2 M345.4,248.9h689.2"/>
	<g>
		<path class="st0" d="M31.3,102.2l150-82.6 M181.5,13.8l123.7,74.3"/>
		<path class="st1" d="M302.7,208.1L44.6,227.5c-14.8,1.1-27.8-10.1-28.9-24.9L10,126.1c-1.1-14.8,10.1-27.8,24.9-28.9L293,77.8
			c14.8-1.1,27.8,10.1,28.9,24.9l5.7,76.5C328.7,194,317.5,207,302.7,208.1z"/>
		<path class="st2" d="M60,122.4c7.5-0.6,14.1,0.5,19.8,3.1c5.6,2.7,10.1,6.7,13.3,12.1c3.2,5.4,5.1,12,5.7,19.6
			c0.4,5.6,0,10.8-1.1,15.5c-1.2,4.7-3.2,8.9-6,12.5s-6.3,6.5-10.6,8.6s-9.3,3.4-15,3.8c-5.7,0.4-10.9-0.1-15.5-1.6
			s-8.6-3.8-11.9-6.9c-3.3-3.1-5.8-7-7.7-11.6c-1.9-4.6-3-9.6-3.5-15.1c-0.4-5.6,0-10.8,1.3-15.6s3.3-8.9,6.1-12.4s6.3-6.3,10.6-8.4
			S54.4,122.8,60,122.4L60,122.4z M83.8,158.3c-0.4-5.3-1.6-9.9-3.6-13.7s-4.7-6.5-8-8.3s-7.1-2.5-11.2-2.2c-2.9,0.2-5.6,1-8,2.3
			s-4.4,3.1-6.1,5.3c-1.6,2.3-2.9,5.1-3.7,8.4c-0.8,3.4-1,7.1-0.7,11.2c0.3,4.1,1.1,7.8,2.4,11.1s3,5.9,5,8c2.1,2.1,4.4,3.5,6.9,4.4
			s5.3,1.3,8.2,1c3.8-0.3,7.2-1.5,10.2-3.6s5.3-5.2,6.9-9.3C83.6,168.9,84.2,164,83.8,158.3L83.8,158.3z M140.2,162.3l-13.5,1
			l1.5,20.6c0.2,2.9-0.3,5.2-1.6,6.9c-1.3,1.6-3,2.5-5.1,2.7c-2.2,0.2-4.1-0.5-5.5-1.9c-1.5-1.4-2.3-3.6-2.5-6.5l-4.2-56.1
			c-0.2-3.2,0.3-5.6,1.7-7.1s3.7-2.4,6.9-2.6l18.9-1.4c5.6-0.4,9.9-0.3,13,0.3c3,0.6,5.7,1.8,8,3.5c2.3,1.8,4.1,4,5.5,6.7
			c1.3,2.7,2.1,5.8,2.4,9.3c0.6,7.4-1.3,13.2-5.6,17.4C155.9,159.2,149.2,161.6,140.2,162.3L140.2,162.3z M134.1,129.2l-9.9,0.7
			l1.7,22.3l9.9-0.7c3.5-0.3,6.4-0.8,8.6-1.7c2.3-0.9,4-2.2,5.1-4c1.1-1.7,1.5-4,1.3-6.6c-0.2-3.2-1.4-5.8-3.4-7.6
			C145.1,129.5,140.7,128.7,134.1,129.2L134.1,129.2z M225.3,122.7l-33.2,2.5l1.3,17.9l30.6-2.3c2.3-0.2,4,0.2,5.2,1.1
			c1.2,0.9,1.8,2.2,2,3.9c0.1,1.7-0.3,3-1.3,4.2s-2.7,1.8-4.9,1.9l-30.6,2.3l1.6,20.7l34.4-2.6c2.3-0.2,4.1,0.2,5.4,1.2
			s2,2.4,2.1,4.2c0.1,1.7-0.4,3.2-1.4,4.3c-1.1,1.2-2.8,1.8-5.1,2l-40.1,3c-3.2,0.2-5.6-0.3-7.1-1.6s-2.4-3.6-2.6-6.7l-4.1-54.7
			c-0.2-2.1,0-3.9,0.6-5.3c0.5-1.4,1.4-2.4,2.7-3.2s3-1.1,5.1-1.3l38.9-2.9c2.3-0.2,4.1,0.2,5.4,1.2c1.2,1,1.9,2.3,2,4
			s-0.3,3.1-1.4,4.3C229.3,121.8,227.6,122.5,225.3,122.7L225.3,122.7z M264.1,116l31.6,40.8l-3.2-43.3c-0.2-2.8,0.2-5,1.3-6.5
			s2.7-2.3,4.7-2.5c2.1-0.2,3.8,0.4,5.2,1.7c1.3,1.3,2.1,3.4,2.3,6.2l4.3,57.3c0.5,6.4-1.9,9.8-7.2,10.2c-1.3,0.1-2.5,0-3.6-0.3
			s-2.1-0.8-3.1-1.6s-1.9-1.7-2.8-2.7s-1.8-2.1-2.6-3.2l-31-40.4l3.2,42.7c0.2,2.8-0.3,4.9-1.5,6.5c-1.2,1.5-2.8,2.4-4.8,2.5
			c-2.1,0.2-3.8-0.4-5.2-1.8c-1.4-1.3-2.2-3.4-2.4-6.1l-4.2-56.2c-0.2-2.4-0.1-4.3,0.4-5.7c0.5-1.5,1.5-2.8,2.9-3.9s2.9-1.6,4.6-1.8
			c1.3-0.1,2.5,0,3.5,0.4s1.8,0.9,2.6,1.6c0.8,0.7,1.6,1.6,2.4,2.7C262.3,113.6,263.2,114.8,264.1,116L264.1,116z"/>
		<circle class="st3" cx="184.4" cy="14.5" r="12.3"/>
	</g>
	<g>
		<path class="st2" d="M375.5,170.8c0,22.3,0.6,32.1,3.3,34.8c2.4,2.4,6.4,3.5,18.2,3.5c8.1,0,14.7-0.2,18.4-4.6
			c2-2.4,3.5-6.2,3.9-9.1c0.2-1.2,0.5-2,1.4-2c0.8,0,0.9,0.6,0.9,2.3s-1.1,10.8-2.3,15.2c-1.1,3.5-1.5,4.1-9.6,4.1
			c-10.9,0-18.8-0.3-25.2-0.5c-6.4-0.3-11.1-0.5-15.5-0.5c-0.6,0-3.2,0.2-6.2,0.2c-3,0.2-6.4,0.3-8.7,0.3c-1.7,0-2.4-0.3-2.4-1.2
			c0-0.5,0.3-0.9,1.2-0.9c1.4,0,3.2-0.3,4.6-0.6c3-0.6,3.8-3.9,4.4-8.4c0.8-6.4,0.8-18.4,0.8-33v-26.7c0-23.7,0-28-0.3-32.8
			c-0.3-5.2-1.5-7.6-6.5-8.7c-1.2-0.3-3.8-0.5-5.2-0.5c-0.6,0-1.2-0.3-1.2-0.9c0-0.9,0.8-1.2,2.4-1.2c6.8,0,16.4,0.5,17.2,0.5
			c0.8,0,11.8-0.5,16.4-0.5c1.7,0,2.4,0.3,2.4,1.2c0,0.6-0.6,0.9-1.2,0.9c-1.1,0-3.2,0.2-5,0.5c-4.4,0.8-5.6,3.3-5.9,8.7
			c-0.3,4.9-0.3,9.1-0.3,32.8L375.5,170.8L375.5,170.8z M465.4,170.5c0,14.6,0,26.6,0.8,33c0.5,4.4,1.4,7.7,5.9,8.4
			c2.1,0.3,5.5,0.6,6.8,0.6c0.9,0,1.2,0.5,1.2,0.9c0,0.8-0.8,1.2-2.4,1.2c-8.4,0-17.9-0.5-18.7-0.5s-10.3,0.5-14.9,0.5
			c-1.7,0-2.4-0.3-2.4-1.2c0-0.5,0.3-0.9,1.2-0.9c1.4,0,3.2-0.3,4.6-0.6c3-0.6,3.8-3.9,4.4-8.4c0.8-6.4,0.8-18.4,0.8-33v-26.7
			c0-23.7,0-28-0.3-32.8c-0.3-5.2-1.8-7.7-5.2-8.5c-1.7-0.5-3.6-0.6-4.7-0.6c-0.6,0-1.2-0.3-1.2-0.9c0-0.9,0.8-1.2,2.4-1.2
			c5,0,14.6,0.5,15.3,0.5c0.8,0,10.3-0.5,14.9-0.5c1.7,0,2.4,0.3,2.4,1.2c0,0.6-0.6,0.9-1.2,0.9c-1.1,0-2,0.2-3.8,0.5
			c-4.1,0.8-5.3,3.3-5.6,8.7c-0.3,4.9-0.3,9.1-0.3,32.8L465.4,170.5L465.4,170.5z M519.5,143.8c0-23.7,0-28-0.3-32.8
			c-0.3-5.2-1.5-7.6-6.5-8.7c-1.2-0.3-3.8-0.5-5.2-0.5c-0.6,0-1.2-0.3-1.2-0.9c0-0.9,0.8-1.2,2.4-1.2c6.8,0,16.4,0.5,17.2,0.5
			c3.6,0,9.6-0.5,16.6-0.5c24.9,0,30.4,15.2,30.4,22.8c0,12.5-7.1,19.9-14.3,27.3c11.2,3.5,26.3,14.3,26.3,32.1
			c0,16.3-12.8,33.1-38.7,33.1c-1.7,0-6.5-0.3-10.9-0.5c-4.4-0.3-8.7-0.5-9.3-0.5c-0.3,0-2.9,0-6.1,0.2c-3,0-6.5,0.3-8.8,0.3
			c-1.7,0-2.4-0.3-2.4-1.2c0-0.5,0.3-0.9,1.2-0.9c1.4,0,3.2-0.3,4.6-0.6c3-0.6,3.8-3.9,4.4-8.4c0.8-6.4,0.8-18.4,0.8-33v-26.6H519.5
			z M531.6,147.1c0,1.1,0.3,1.4,1.1,1.7c0.9,0.2,3.6,0.6,9.3,0.6c8.5,0,10.6-0.3,13.8-3.9s5.5-9.1,5.5-15.3
			c0-12.6-5.6-26.1-20.5-26.1c-1.7,0-4.9,0.2-7.3,0.8c-1.4,0.3-1.8,0.8-1.8,1.7L531.6,147.1L531.6,147.1z M531.6,163.2
			c0,11.7,0,30.5,0.2,32.8c0.5,7.4,0.5,9.6,5.2,11.8c4.1,2,10.6,2.3,13.4,2.3c8.2,0,21.4-4.4,21.4-21.6c0-9.1-3-22.3-14.7-30.4
			c-5.2-3.5-9-4-12.6-4.4c-2-0.3-9.6-0.3-11.8-0.3c-0.6,0-0.9,0.3-0.9,1.1v8.7L531.6,163.2z M621.6,143.8c0-23.7,0-28-0.3-32.8
			c-0.3-5.2-1.5-7.6-6.5-8.7c-1.2-0.3-3.8-0.5-5.2-0.5c-0.6,0-1.2-0.3-1.2-0.9c0-0.9,0.8-1.2,2.4-1.2c6.8,0,16.4,0.5,17.2,0.5
			c1.7,0,13.2-0.5,17.9-0.5c9.6,0,19.7,0.9,27.8,6.7c3.8,2.7,10.5,10.2,10.5,20.7c0,11.2-4.7,22.5-18.4,35.1
			c12.5,16,22.8,29.5,31.6,38.9c8.2,8.7,14.7,10.3,18.5,10.9c2.9,0.5,5,0.5,5.9,0.5c0.8,0,1.4,0.5,1.4,0.9c0,0.9-0.9,1.2-3.6,1.2
			h-10.8c-8.5,0-12.3-0.8-16.3-2.9c-6.5-3.5-11.8-10.9-20.5-22.3c-6.4-8.4-13.5-18.5-16.6-22.5c-0.6-0.6-1.1-0.9-2-0.9l-18.7-0.3
			c-0.8,0-1.1,0.5-1.1,1.2v3.6c0,14.6,0,26.6,0.8,33c0.5,4.4,1.4,7.7,5.9,8.4c2.1,0.3,5.5,0.6,6.8,0.6c0.9,0,1.2,0.5,1.2,0.9
			c0,0.8-0.8,1.2-2.4,1.2c-8.4,0-17.9-0.5-18.7-0.5c-0.2,0-9.7,0.5-14.3,0.5c-1.7,0-2.4-0.3-2.4-1.2c0-0.5,0.3-0.9,1.2-0.9
			c1.4,0,3.2-0.3,4.6-0.6c3-0.6,3.8-3.9,4.4-8.4c0.8-6.4,0.8-18.4,0.8-33L621.6,143.8L621.6,143.8z M633.7,157
			c0,0.8,0.3,1.4,1.1,1.8c2.3,1.4,9.3,2.4,16,2.4c3.6,0,7.9-0.5,11.4-2.9c5.3-3.6,9.3-11.8,9.3-23.4c0-19-10-30.4-26.3-30.4
			c-4.6,0-8.7,0.5-10.2,0.9c-0.8,0.3-1.2,0.9-1.2,1.8L633.7,157L633.7,157z"/>
		<path class="st4" d="M758.7,103.5c1.8-5,2.4-5.9,3.3-5.9c0.9,0,1.5,0.8,3.3,5.5c2.3,5.8,26.1,68.5,35.4,91.6
			c5.5,13.5,9.9,16,13.1,16.9c2.3,0.8,4.6,0.9,6.1,0.9c0.9,0,1.5,0.2,1.5,0.9c0,0.9-1.4,1.2-3,1.2c-2.3,0-13.4,0-23.9-0.3
			c-2.9-0.2-4.6-0.2-4.6-1.1c0-0.6,0.5-0.9,1.1-1.1c0.9-0.3,1.8-1.7,0.9-4.1l-14.1-37.4c-0.3-0.6-0.6-0.9-1.4-0.9h-32.7
			c-0.8,0-1.2,0.5-1.5,1.2l-9.1,26.9c-1.4,3.8-2.1,7.4-2.1,10.2c0,3,3.2,4.4,5.8,4.4h1.5c1.1,0,1.5,0.3,1.5,0.9
			c0,0.9-0.9,1.2-2.3,1.2c-3.6,0-10.2-0.5-11.8-0.5s-10,0.5-17.2,0.5c-2,0-2.9-0.3-2.9-1.2c0-0.6,0.6-0.9,1.4-0.9
			c1.1,0,3.2-0.2,4.4-0.3c7-0.9,10-6.7,12.8-14.3L758.7,103.5L758.7,103.5z M774.5,164.3c0.8,0,0.8-0.5,0.6-1.1l-14.4-41
			c-0.8-2.3-1.5-2.3-2.3,0l-13.4,41c-0.3,0.8,0,1.1,0.5,1.1H774.5L774.5,164.3z M843.2,143.8c0-23.7,0-28-0.3-32.8
			c-0.3-5.2-1.5-7.6-6.5-8.7c-1.2-0.3-3.8-0.5-5.2-0.5c-0.6,0-1.2-0.3-1.2-0.9c0-0.9,0.8-1.2,2.4-1.2c6.8,0,16.4,0.5,17.2,0.5
			c1.7,0,13.2-0.5,17.9-0.5c9.6,0,19.7,0.9,27.8,6.7c3.8,2.7,10.5,10.2,10.5,20.7c0,11.2-4.7,22.5-18.4,35.1
			c12.5,16,22.8,29.5,31.6,38.9c8.2,8.7,14.7,10.3,18.5,10.9c2.9,0.5,5,0.5,5.9,0.5c0.8,0,1.4,0.5,1.4,0.9c0,0.9-0.9,1.2-3.6,1.2
			h-10.8c-8.5,0-12.3-0.8-16.3-2.9c-6.5-3.5-11.8-10.9-20.5-22.3c-6.4-8.4-13.5-18.5-16.6-22.5c-0.6-0.6-1.1-0.9-2-0.9l-18.7-0.3
			c-0.8,0-1.1,0.5-1.1,1.2v3.6c0,14.6,0,26.6,0.8,33c0.5,4.4,1.4,7.7,5.9,8.4c2.1,0.3,5.5,0.6,6.8,0.6c0.9,0,1.2,0.5,1.2,0.9
			c0,0.8-0.8,1.2-2.4,1.2c-8.4,0-17.9-0.5-18.7-0.5c-0.2,0-9.7,0.5-14.3,0.5c-1.7,0-2.4-0.3-2.4-1.2c0-0.5,0.3-0.9,1.2-0.9
			c1.4,0,3.2-0.3,4.6-0.6c3-0.6,3.8-3.9,4.4-8.4c0.8-6.4,0.8-18.4,0.8-33L843.2,143.8L843.2,143.8z M855.4,157
			c0,0.8,0.3,1.4,1.1,1.8c2.3,1.4,9.3,2.4,16,2.4c3.6,0,7.9-0.5,11.4-2.9c5.3-3.6,9.3-11.8,9.3-23.4c0-19-10-30.4-26.3-30.4
			c-4.6,0-8.7,0.5-10.2,0.9c-0.8,0.3-1.2,0.9-1.2,1.8L855.4,157L855.4,157z M971.6,175.2c0-8.2-1.5-11.5-3.5-16
			c-1.1-2.4-21.4-35.9-26.7-43.8c-3.8-5.6-7.6-9.4-10.3-11.2c-2.3-1.5-5.2-2.4-6.5-2.4c-0.8,0-1.5-0.3-1.5-1.1c0-0.6,0.6-1.1,2-1.1
			c2.9,0,14.3,0.5,15,0.5c1.1,0,6.8-0.5,12.8-0.5c1.7,0,2,0.5,2,1.1s-0.9,0.8-2.3,1.4c-1.2,0.6-2,1.5-2,2.7c0,1.8,0.8,3.6,2,5.9
			c2.4,4.4,25.2,43.6,28,48c2.9-6.4,22.2-39.7,25.2-44.7c2-3.2,2.6-5.8,2.6-7.7c0-2.1-0.6-3.8-2.4-4.3c-1.4-0.5-2.3-0.8-2.3-1.5
			c0-0.6,0.9-0.9,2.4-0.9c3.9,0,8.8,0.5,10,0.5c0.9,0,11.8-0.5,14.7-0.5c1.1,0,2,0.3,2,0.9c0,0.8-0.8,1.2-2,1.2
			c-1.7,0-4.6,0.6-7,2.1c-3,1.8-4.7,3.6-8.1,7.7c-5,6.1-26.3,41.8-29,48.3c-2.3,5.5-2.3,10.2-2.3,15.2v13.1c0,2.4,0,8.8,0.5,15.2
			c0.3,4.4,1.7,7.7,6.2,8.4c2.1,0.3,5.5,0.6,6.8,0.6c0.9,0,1.2,0.5,1.2,0.9c0,0.8-0.8,1.2-2.4,1.2c-8.4,0-17.9-0.5-18.7-0.5
			s-10.3,0.5-14.9,0.5c-1.7,0-2.4-0.3-2.4-1.2c0-0.5,0.3-0.9,1.2-0.9c1.4,0,3.2-0.3,4.6-0.6c3-0.6,4.4-3.9,4.7-8.4
			c0.5-6.4,0.5-12.8,0.5-15.2L971.6,175.2L971.6,175.2z"/>
	</g>
</g>
</svg>
